<svg xmlns="http://www.w3.org/2000/svg" viewBox="0 0 100 100" enable-background="new 0 0 100 100"><circle cx="50" cy="50" r="50" fill="#2b3347"/><path d="m27.6 24.6l3.8 4.2-3.8-1.1-1.2-2.3-26.4 26.4c1 26.8 23 48.2 50 48.2 2 0 4-.1 5.9-.4l14.5-14.5-35.2-68.1-7.6 7.6" opacity=".5" fill="#131a26"/><g fill="#a51313"><path d="m69.4 18.3l-26.2-3.4c0 0-10.7-1.5-10.7 8.9l-1.8 11.6v7.6l1.8 6.8 4.8 10.3v6.2c.1-.2 31.7 0 31.7 0v-7.3c0 0 1.6-.1 2.3-3.8l2.8-30.5c0 .1 2-5.3-4.7-6.4"/><path d="m53.1 80.5l-1.7 4.7h-15.6l1.8-4.7"/></g><g fill="#cc1d1d"><path d="m53.1 80.5l1.7 4.7h15.6l-1.8-4.7"/><path d="m69.4 18.3l-16.4-2.1v43.7 6 .5c7.9 0 15.9.1 15.9.1v-7.3c0 0 1.6-.1 2.3-3.8l2.8-30.5c.1-.1 2.1-5.5-4.6-6.6"/></g><path d="m53.3 70.2h-.4c-.7 0-1.3-.6-1.3-1.3v-12.6c0-.7.6-1.3 1.3-1.3h.4c.7 0 1.3.6 1.3 1.3v12.7c-.1.6-.6 1.2-1.3 1.2" fill="#2b3347"/><g fill="#fc3838"><path d="m73.4 32.9l.8-8.1c0 0 1.9-5.4-4.7-6.6l-26.2-3.4c0 0-3.1-.4-6 .8v13c0 0-.1 15.5 15.1 15.5h7.6c0 .2 11.2-.1 13.4-11.2"/><path d="m25.6 27.9c0 3.4 0 12.1 0 12.1s1.1 15.2 11.7 20.2c5-2.1 4.8-7.2 4.8-7.2v-7.9l-3.7-3.7-3.2 2.8 1.9-5-2.7 1.8 2-3.8v-6.4c0-6.6-4-7-4-7h-3.7c.1 0-3.1.7-3.1 4.1"/></g><path fill="#a51313" d="m69 62.8v-3.7h-11.3z"/><path d="m68.8 66h-31.5c-.7 0-1.3.6-1.3 1.3v12.4c0 .7.6 1.3 1.3 1.3h31.5c.7 0 1.3-.6 1.3-1.3v-12.4c0-.8-.6-1.3-1.3-1.3" fill="#cc1d1d"/><path d="m68.8 66h-15.7v15h15.7c.7 0 1.3-.6 1.3-1.3v-12.4c0-.8-.6-1.3-1.3-1.3" fill="#fc3838"/><path d="m53.1 39.5h5.7c0 0 7.8.7 11.6-6.9l-17.3 6.9" fill="#ff6e6e"/><g fill="#770303"><circle cx="47.8" cy="69.4" r="1.7"/><circle cx="47.8" cy="73.6" r="1.7"/><circle cx="47.8" cy="77.9" r="1.7"/><circle cx="58.4" cy="69.4" r="1.7"/><circle cx="58.4" cy="73.6" r="1.7"/><circle cx="58.4" cy="77.9" r="1.7"/></g><g fill="#ddc1a4"><path d="m58.8 69.2c-.2-.4-.6-.6-.9-.5l-10.2 4.2c-.4.1-.5.6-.4.9v.1c.1.4.6.5.9.4l10.2-4.2c.3-.1.5-.5.4-.9"/><path d="m58.8 73.5c-.2-.4-.6-.6-.9-.5l-10.2 4.2c-.4.1-.5.6-.4.9v.1c.1.4.6.5.9.4l10.2-4.2c.3-.2.5-.6.4-.9"/></g><g fill="#fff"><path d="m47.2 69.2c.2-.4.6-.6.9-.5l10.2 4.2c.4.1.5.6.4.9v.1c-.1.4-.6.5-.9.4l-10.2-4.2c-.3-.1-.5-.5-.4-.9"/><path d="m47.2 73.5c.2-.4.6-.6.9-.5l10.2 4.2c.4.1.5.6.4.9v.1c-.1.4-.6.5-.9.4l-10.2-4.2c-.3-.2-.5-.6-.4-.9"/></g></svg>